<svg xmlns="http://www.w3.org/2000/svg" viewBox="-0.0129998 1.001 16.43 16">
  <path d="M 0 12 v -9 l 0.887 -1.869 q 0.071 -0.129 0.21 -0.13 h 2.603 q 0.297 0 0.359 0.13 l 0.905 1.785 q 0.035 0.058 0.034 0.123 v 6.494 q 0.002 0.075 0.063 0.127 l 1.341 1.545 c 0.29 0.31 -0.6 0.987 -0.929 0.736 l -1.239 -1.317 q -0.232 -0.309 -0.242 -1.204 v -5.889 q 0 -0.149 -0.059 -0.242 l -0.59 -1.248 q -0.032 -0.05 -0.091 -0.05 l -1.532 0.002 q -0.066 0 -0.094 0.069 l -0.591 1.227 q -0.035 0.058 -0.036 0.106 v 9.605 q 0.002 0.161 0.1 0.286 l 2.209 2.092 q 0.618 0.614 1.371 0.623 h 1.321 q 0.248 -0.002 0.638 -0.172 l 1.046 -0.787 C 8.214 14.619 8.555 15.571 8.402 15.795 L 7.185 16.769 Q 6.797 16.997 6.491 16.997 H 4.228 q -0.639 0.002 -1.672 -0.79 l -2.187 -2.088 q -0.382 -0.358 -0.382 -0.695 Z M 1.908 4.412 a 0.3 0.3 0 0 1 1.045 0 v 7.103 q 0 0.132 0.08 0.199 l 1.265 1.402 q 0.265 0.265 0.538 0.278 h 0.88 q 0.311 0.003 0.529 -0.247 l 1.44 -1.683 q 0.136 -0.222 0.331 -0.235 h 1.049 q 0.139 0.024 0.228 0.157 c 0.145 0.205 -0.249 0.777 -0.37 0.768 h -0.446 l -1.451 1.701 q -0.431 0.467 -0.907 0.476 h -1.773 q -0.351 -0.012 -0.637 -0.426 l -1.668 -1.719 q -0.133 -0.203 -0.133 -0.501 Z M 9.54 12.628 q 0.091 -0.16 0.262 -0.433 l 1.506 -2.369 q 0.127 -0.227 0.134 -0.414 v -6.373 q -0.001 -0.062 0.049 -0.131 l 0.996 -1.725 q 0.15 -0.182 0.298 -0.182 h 2.426 q 0.198 0 0.323 0.242 l 0.761 1.466 q 0.123 0.215 0.126 0.29 v 10.476 q -0.037 0.695 -0.474 1.247 l -1.58 1.704 q -0.502 0.571 -0.769 0.573 h -2.14 q -0.783 0 -1.297 -0.5 l -2.018 -2.178 c -0.18 -0.229 0.534 -0.881 0.672 -0.786 l 1.834 1.971 q 0.403 0.493 0.742 0.511 h 1.705 q 0.26 -0.005 0.531 -0.272 l 1.175 -1.222 q 0.465 -0.514 0.467 -0.859 v -10.256 q 0.006 -0.234 -0.076 -0.394 l -0.499 -1.088 q -0.046 -0.101 -0.09 -0.101 h -1.355 q -0.082 0.001 -0.186 0.213 l -0.459 0.876 q -0.106 0.164 -0.116 0.268 v 6.083 q -0.014 0.925 -0.551 1.72 l -1.716 2.529 c -0.122 0.139 -0.883 -0.566 -0.729 -0.813 Z M 13.333 4.44 a 0.3 0.3 0 0 1 1.051 -0.107 v 7.014 q -0.03 0.443 -0.276 0.772 l -0.939 1.22 q -0.338 0.42 -0.434 0.422 h -1.431 q -0.134 0.002 -0.411 -0.375 c -0.18 -0.238 0.164 -0.896 0.356 -0.788 Q 11.44 12.752 11.64 12.823 h 0.565 q 0.098 -0.005 0.168 -0.074 l 0.782 -1.031 Q 13.336 11.468 13.333 11.213 z" fill="#dc143c"/>
</svg>